<?xml version="1.0" encoding="utf-8"?>
<!-- Generator: Adobe Illustrator 23.0.4, SVG Export Plug-In . SVG Version: 6.00 Build 0)  -->
<svg version="1.1" xmlns="http://www.w3.org/2000/svg" xmlns:xlink="http://www.w3.org/1999/xlink" x="0px" y="0px"
	 viewBox="0 0 1200 1200" style="enable-background:new 0 0 1200 1200;" xml:space="preserve">
<g id="background">
	<g id="Calque_6">
		<circle style="fill:#E5F1FB;" cx="591" cy="539.5" r="311.6"/>
	</g>
</g>
<g id="person">
	<g id="Calque_5">
		<path style="fill:#FFFFFF;" d="M527.3,744.8c0.9,0,47.3,5.7,52.6-7.6c5.4-13.3,0.3-52-6.6-65.3c-6.9-13.3-35.3-79.5-37-123.4
			c19.9,16.2,26.5,17.6,26.5,17.6s12.2,1.7,17.6-2.3c3.7-2.8,8.4-5,11-6.3c1.1-0.5,1.7-1.8,1.2-3.1l-6.6-16.7
			c-0.5-1.1-1.5-1.7-2.6-1.4c-3.7,0.9-11.6,2.4-13.9,1.8c-3.2-0.9-37.8-56.3-42.2-59.8c-4.4-3.4-25.2-23.1-33.6-23.2
			c-8.6-0.2,9.2,32.4,9.2,32.4l9.9,15.9l4.9,55.2l0.5,17.9L527.3,744.8z"/>
		<path style="fill:#C6DDFF;" d="M521.8,561.3c0,0,27.1,144.2,6.3,161.5l-2.6,2.3l-10.2-136.9v-21.4
			C515.4,567,518.8,557.9,521.8,561.3z"/>
		<path style="fill:#C6DDFF;" d="M430.4,679.8c0,0-42.5,38.5-50.3,71.7c-4.6,13.9,11.9,5.8,11.9,5.8s27.7-12.5,35.8-11.8
			c8.1,0.9,6.6-61.6,6.6-61.6S433.3,677.2,430.4,679.8z"/>
		<path style="fill:#2F438A;" d="M519.7,600.1c0,0-2.6,14.1-82.7,3.8c-4.3,88.7-16.4,349.6-16.4,349.6h16.8l44.3-184l20.9,184
			l17.1-1.4C519.7,952,533.3,657.8,519.7,600.1z"/>
		<path style="fill:#5F9FE2;" d="M495.7,457.8c0,0,17.4,28.7,19.1,33.5c3.1,8.7,5,15,5,22.5c0,8.1,4,81.2,3.2,87.8
			c-0.9,7.8,1.2,19.6-12.7,24.9c-13.8,5.2-40.5,2.1-40.5,2.1s5.5-128-3.5-170.3c11.5,13.9,29.1,27.4,29.1,27.4s4.6,1.7,6.3-1.8
			C503.5,479.9,495.7,457.8,495.7,457.8z"/>
		<path style="fill:#FCB7B2;" d="M500.7,469.5c0,0,2.3,9.9,1.1,13.8c-1.1,3.8-3.4,6.4-18.8-6.9c-15.3-13.3-16.8-18.3-16.8-18.3
			c-0.2,0,1.8,0.2,2-0.9s-0.8-26.3-0.8-26.3s-2.1-7.3-4.1-7.6c-2.1-0.3-7.3-4.4-3.8-9.3s1.2-28.4,7.8-30c8.3-2,28.6-13.6,36.7-4.3
			c7.2,8.3,3.7,22.2,2.6,25.1c-0.2,0.3-0.2,0.8-0.2,1.1c0.2,3.8,0.5,25.8-8.7,31.7c-10.1,6.4-8.1,8.1-8.1,8.1s8.7,17.6,9.6,20.2
			C500.7,469.5,500.7,469.5,500.7,469.5z"/>
		<path style="fill:#332F2F;" d="M480.1,399.2c0,0-8-4.9-8.9,0s1.4,12.5-2,13.3c-2.6,0.6-6.6-0.9-8.3-1.7c-0.5-0.2-0.8-0.8-0.8-1.2
			v-18.4l0,0c0.2-0.6,0.6-2.1,0.9-2.6c2.4-3.7,17-24,44.2-10.7c0.2,0,0.2,0.2,0.3,0.2c16.5,12.7,3.4,23.1,1.5,24.5
			c-0.2,0.2-0.3,0.2-0.5,0.2C504.6,403.5,491.3,406.1,480.1,399.2z"/>
		<path style="fill:#FFFFFF;" d="M380.4,758.6c0,0,0.6-28,53.8-79.7c64.2-43,39.6-161.3,39.6-161.3s-3.4-39.3-3.7-41.6
			c-0.5-3.5-0.6-6.1-2.8-13.5c-1.2-4.4-1.1-4.6-1.1-4.6s-29.5,11.6-35.8,18.5s-37.9,64.1-38.5,87.6s14.2,27.5,14.2,27.5l21.9-5.4
			l-2.6,23.5c0,0-45.6,130-46,134.6C378.9,749.1,377.2,755.6,380.4,758.6z"/>
		<path style="fill:#181919;" d="M437.6,949.2l-14.2-3.5c-1.4-0.3-2.6,0.6-2.8,2l-1.2,17.3c0,1.1,0.8,2.1,1.8,2.3l53.4,9
			c0.9,0.2,2-0.3,2.3-1.2c0.8-1.8,1.4-4.7-2.8-6.6c-5.8-2.8-33.3-17.6-36.2-19.1C437.9,949.4,437.7,949.4,437.6,949.2z"/>
		<path style="fill:#181919;" d="M519.2,952l-14.5-2c-1.4-0.2-2.4,0.9-2.4,2.3l0.6,17.4c0,1.1,0.9,2,2,2.1l54,3.7
			c0.9,0,1.8-0.5,2.1-1.5c0.6-1.8,0.8-4.9-3.4-6.3c-6-2.1-35-14.2-37.9-15.4C519.5,952,519.4,952,519.2,952z"/>
		<path style="fill:#FCB7B2;" d="M631.5,525.5c-0.9,0.8-11,7.8-49.9,12.7c-0.3,0-0.5,0.2-0.6,0.3c-7.8,4-4.3,11.5-4.3,11.5
			s1.8,7.3,8.4,8s50.3-21.4,58.1-22.8c7.6-1.4,28.1-4.9,37.8-2.6c9,2.1-2.3-4.3-4.1-5.4c-0.2-0.2-0.3-0.2-0.5-0.2
			c-2-0.5-17-3.5-22.5-5s-1.2-7.3-0.6-8.1l0.2-0.2c0.6-1.2,5.5-10.4,2.4-10.4C652.7,503.3,632.9,524.1,631.5,525.5
			C631.6,525.5,631.6,525.5,631.5,525.5z"/>
		<path style="fill:#FCB7B2;" d="M440.5,616c-0.9-0.8-9.6-9.5-20.9-47.1c0-0.3-0.2-0.5-0.3-0.6c-6-6.4-12.1-2.3-12.1-2.3
			s-6.9,3.1-6.4,9.6c0.6,6.6,29.5,46,32.3,53.4c2.8,7.3,9.5,26.9,8.9,36.9c-0.6,9.2,3.8-3.1,4.6-4.9c0-0.2,0.2-0.3,0.2-0.5
			c0-2,0.6-17.3,1.2-23.1c0.6-5.7,7-2.4,8-2c0.2,0,0.2,0,0.3,0.2c1.2,0.5,11.2,3.7,10.7,0.8c-0.5-3.1-24.3-19-25.8-20
			C440.5,616.2,440.5,616.2,440.5,616z"/>
		<polygon style="fill:#FFFFFF;" points="467.2,613 466.6,636.7 443.4,671.5 431.6,665.9 431.6,651.8 		"/>
	</g>
</g>
<g id="error_x5F_icon">
	<circle style="opacity:0.35;fill:#FFA492;enable-background:new    ;" cx="714" cy="432.8" r="77"/>
	<g>
		
			<image style="overflow:visible;opacity:0.62;enable-background:new    ;" width="118" height="118"  transform="matrix(0.9915 0 0 0.9915 655.825 375.825)">
		</image>
		<g>
			<circle style="fill:#BF2600;" cx="714" cy="433.8" r="48.4"/>
		</g>
	</g>
	<g>
		<g>
			<path style="fill:#E5F1FB;" d="M692.9,407.9l21.1,21.6l21.1-21.6l4.3,4.3l-21.2,21.6l21.2,21.6l-4.3,4.3L714,438.2l-21.1,21.6
				l-4.3-4.3l21.1-21.6l-21.1-21.6L692.9,407.9z"/>
		</g>
	</g>
</g>
</svg>
